<svg xmlns="http://www.w3.org/2000/svg" viewBox="0 0 512 512">
  <!-- Sourced from FontAwesome fa-trash-alt (solid style), colored green to match theme -->
  <path fill="#4caf50" d="M32 448c0 17.7 14.3 32 32 32h384c17.7 0 32-14.3 32-32V160H32v288zm160-212c0-6.6 5.4-12 12-12h14c6.6 0 12 5.4 12 12v200c0 6.6-5.4 12-12 12h-14c-6.6 0-12-5.4-12-12V236zm96 0c0-6.6 5.4-12 12-12h14c6.6 0 12 5.4 12 12v200c0 6.6-5.4 12-12 12h-14c-6.6 0-12-5.4-12-12V236zM496 80h-128l-14.7-32.5c-3.5-7.7-11.2-12.5-19.6-12.5h-155.3c-8.4 0-16.1 4.8-19.6 12.5L144 80H16a16 16 0 0 0-16 16v32a16 16 0 0 0 16 16h480a16 16 0 0 0 16-16V96a16 16 0 0 0-16-16z"/>
</svg>